<mxfile host="app.diagrams.net" modified="2022-03-27T23:48:11.030Z" agent="5.0 (Windows NT 10.0; Win64; x64) AppleWebKit/537.36 (KHTML, like Gecko) Chrome/99.0.4844.82 Safari/537.36" etag="lJ8eoPH0oeaPxlyu0eFi" version="17.1.3" type="github">
  <diagram id="vY7rqNXLI3e36UqYU7lt" name="Page-1">
    <mxGraphModel dx="2955" dy="1830" grid="1" gridSize="10" guides="1" tooltips="1" connect="1" arrows="1" fold="1" page="1" pageScale="1" pageWidth="850" pageHeight="1100" math="0" shadow="0">
      <root>
        <mxCell id="0" />
        <mxCell id="1" parent="0" />
        <mxCell id="svCqRBqmQSqQSpRAd8TF-1" value="" style="rounded=0;whiteSpace=wrap;html=1;" vertex="1" parent="1">
          <mxGeometry x="370" y="410" width="1400" height="1340" as="geometry" />
        </mxCell>
        <mxCell id="svCqRBqmQSqQSpRAd8TF-3" value="" style="line;strokeWidth=2;html=1;" vertex="1" parent="1">
          <mxGeometry x="370" y="570" width="540" height="10" as="geometry" />
        </mxCell>
        <mxCell id="svCqRBqmQSqQSpRAd8TF-5" value="" style="shape=ext;double=1;rounded=0;whiteSpace=wrap;html=1;" vertex="1" parent="1">
          <mxGeometry x="910" y="530" width="340" height="80" as="geometry" />
        </mxCell>
        <mxCell id="svCqRBqmQSqQSpRAd8TF-6" value="" style="line;strokeWidth=2;html=1;" vertex="1" parent="1">
          <mxGeometry x="1250" y="570" width="520" height="10" as="geometry" />
        </mxCell>
        <mxCell id="svCqRBqmQSqQSpRAd8TF-7" value="" style="shape=ext;double=1;rounded=0;whiteSpace=wrap;html=1;" vertex="1" parent="1">
          <mxGeometry x="440" y="710" width="290" height="80" as="geometry" />
        </mxCell>
        <mxCell id="svCqRBqmQSqQSpRAd8TF-8" value="&lt;span style=&quot;font-size: 48px&quot;&gt;text&lt;/span&gt;" style="shape=ext;double=1;rounded=0;whiteSpace=wrap;html=1;" vertex="1" parent="1">
          <mxGeometry x="440" y="790" width="580" height="180" as="geometry" />
        </mxCell>
        <mxCell id="svCqRBqmQSqQSpRAd8TF-9" value="Title" style="text;strokeColor=none;fillColor=none;html=1;fontSize=24;fontStyle=1;verticalAlign=middle;align=center;" vertex="1" parent="1">
          <mxGeometry x="945" y="550" width="275" height="40" as="geometry" />
        </mxCell>
        <mxCell id="svCqRBqmQSqQSpRAd8TF-10" value="Title" style="text;strokeColor=none;fillColor=none;html=1;fontSize=24;fontStyle=1;verticalAlign=middle;align=center;" vertex="1" parent="1">
          <mxGeometry x="455" y="730" width="240" height="40" as="geometry" />
        </mxCell>
        <mxCell id="svCqRBqmQSqQSpRAd8TF-14" value="" style="shape=ext;double=1;rounded=0;whiteSpace=wrap;html=1;" vertex="1" parent="1">
          <mxGeometry x="440" y="1000" width="290" height="80" as="geometry" />
        </mxCell>
        <mxCell id="svCqRBqmQSqQSpRAd8TF-15" value="&lt;font style=&quot;font-size: 48px&quot;&gt;text&lt;/font&gt;" style="shape=ext;double=1;rounded=0;whiteSpace=wrap;html=1;" vertex="1" parent="1">
          <mxGeometry x="440" y="1080" width="580" height="180" as="geometry" />
        </mxCell>
        <mxCell id="svCqRBqmQSqQSpRAd8TF-16" value="Title" style="text;strokeColor=none;fillColor=none;html=1;fontSize=24;fontStyle=1;verticalAlign=middle;align=center;" vertex="1" parent="1">
          <mxGeometry x="535" y="1020" width="100" height="40" as="geometry" />
        </mxCell>
        <mxCell id="svCqRBqmQSqQSpRAd8TF-19" value="" style="shape=ext;double=1;rounded=0;whiteSpace=wrap;html=1;" vertex="1" parent="1">
          <mxGeometry x="440" y="1290" width="290" height="80" as="geometry" />
        </mxCell>
        <mxCell id="svCqRBqmQSqQSpRAd8TF-20" value="&lt;font style=&quot;font-size: 48px&quot;&gt;text&lt;/font&gt;" style="shape=ext;double=1;rounded=0;whiteSpace=wrap;html=1;" vertex="1" parent="1">
          <mxGeometry x="440" y="1370" width="590" height="180" as="geometry" />
        </mxCell>
        <mxCell id="svCqRBqmQSqQSpRAd8TF-21" value="Title" style="text;strokeColor=none;fillColor=none;html=1;fontSize=24;fontStyle=1;verticalAlign=middle;align=center;" vertex="1" parent="1">
          <mxGeometry x="540" y="1310" width="100" height="40" as="geometry" />
        </mxCell>
        <mxCell id="svCqRBqmQSqQSpRAd8TF-24" value="photo" style="rounded=0;whiteSpace=wrap;html=1;fontSize=48;" vertex="1" parent="1">
          <mxGeometry x="1250" y="750" width="340" height="220" as="geometry" />
        </mxCell>
        <mxCell id="svCqRBqmQSqQSpRAd8TF-25" value="photo" style="rounded=0;whiteSpace=wrap;html=1;fontSize=48;" vertex="1" parent="1">
          <mxGeometry x="1250" y="1040" width="340" height="220" as="geometry" />
        </mxCell>
        <mxCell id="svCqRBqmQSqQSpRAd8TF-26" value="photo" style="rounded=0;whiteSpace=wrap;html=1;fontSize=48;" vertex="1" parent="1">
          <mxGeometry x="1260" y="1320" width="340" height="230" as="geometry" />
        </mxCell>
      </root>
    </mxGraphModel>
  </diagram>
</mxfile>
